HIERARCHY
ROOT hip
{
	OFFSET 0.000000 0.000000 0.000000 
	CHANNELS 6 Xposition Yposition Zposition Xrotation Zrotation Yrotation
	JOINT abdomen
	{
		OFFSET 0.000000 3.402643 0.000000 
		CHANNELS 3 Xrotation Zrotation Yrotation
		JOINT chest
		{
			OFFSET 0.000000 8.438565 -0.680529 
			CHANNELS 3 Xrotation Zrotation Yrotation
			JOINT neck
			{
				OFFSET 0.000000 10.207942 -0.272212 
				CHANNELS 3 Xrotation Zrotation Yrotation
				JOINT head
				{
					OFFSET 0.000000 3.130431 0.000000 
					CHANNELS 3 Xrotation Zrotation Yrotation
					End Site
					{
						OFFSET 0.000000 3.130435 0.000000 
					}
				}
			}
			JOINT lCollar
			{
				OFFSET 3.470700 6.669187 -0.816635 
				CHANNELS 3 Yrotation Zrotation Xrotation
				JOINT lShldr
				{
					OFFSET 3.198488 0.000000 0.000000 
					CHANNELS 3 Zrotation Yrotation Xrotation
					JOINT lForeArm
					{
						OFFSET 10.139888 0.000000 0.000000 
						CHANNELS 3 Yrotation Zrotation Xrotation
						JOINT lHand
						{
							OFFSET 8.370511 0.000000 0.000000 
							CHANNELS 3 Zrotation Yrotation Xrotation
							End Site
							{
								OFFSET 4.083176 0.000000 0.000000 
							}
						}
					}
				}
			}
			JOINT rCollar
			{
				OFFSET -3.470700 6.669187 -0.816635 
				CHANNELS 3 Yrotation Zrotation Xrotation
				JOINT rShldr
				{
					OFFSET -3.198488 0.000000 0.000000 
					CHANNELS 3 Zrotation Yrotation Xrotation
					JOINT rForeArm
					{
						OFFSET -10.139888 0.000000 0.000000 
						CHANNELS 3 Yrotation Zrotation Xrotation
						JOINT rHand
						{
							OFFSET -8.370511 0.000000 0.000000 
							CHANNELS 3 Zrotation Yrotation Xrotation
							End Site
							{
								OFFSET -4.083176 0.000000 0.000000 
							}
						}
					}
				}
			}
		}
	}
	JOINT lThigh
	{
		OFFSET 5.308129 -1.633274 1.361059 
		CHANNELS 3 Xrotation Zrotation Yrotation
		JOINT lShin
		{
			OFFSET -2.041588 -20.007561 0.000000 
			CHANNELS 3 Xrotation Zrotation Yrotation
			JOINT lFoot
			{
				OFFSET 0.000000 -19.190928 -1.224953 
				CHANNELS 3 Xrotation Yrotation Zrotation
				End Site
				{
					OFFSET 0.000000 -2.449906 4.627600 
				}
			}
		}
	}
	JOINT rThigh
	{
		OFFSET -5.308129 -1.633274 1.361059 
		CHANNELS 3 Xrotation Zrotation Yrotation
		JOINT rShin
		{
			OFFSET 2.041588 -20.007561 0.000000 
			CHANNELS 3 Xrotation Zrotation Yrotation
			JOINT rFoot
			{
				OFFSET 0.000000 -19.190928 -1.224953 
				CHANNELS 3 Xrotation Yrotation Zrotation
				End Site
				{
					OFFSET 0.000000 -2.449906 4.627600 
				}
			}
		}
	}
}
MOTION
Frames: 6
Frame Time: 0.033333
-14.457408 50.567558 22.777454 -5.479975 -11.423549 -29.839468 0.000000 0.000000 0.000000 4.131735 -1.178571 -0.681017 4.158019 7.951260 -17.017525 7.082292 -5.710890 -9.380593 -13.815670 -23.110277 0.095884 -43.341690 20.108301 18.344379 -47.297157 -8.295504 3.343728 1.298600 1.452867 9.919468 4.997498 -2.885659 4.002138 8.549164 -9.028800 -99.279137 131.189835 18.320263 5.427372 -9.217453 -3.924453 -33.532215 11.961300 13.329842 7.988787 23.671572 -3.622158 16.060858 -22.429888 0.486489 -2.372808 3.688326 -11.215892 -16.802231 29.046530 7.650617 -6.510571 -11.549101 -1.188788 11.675319 
-14.720356 50.560509 22.822124 -6.047119 -11.383293 -30.550671 0.000000 0.000000 0.000000 4.659094 -1.119337 -0.472249 4.596955 7.333175 -16.374695 6.797273 -5.836962 -9.182436 -12.813982 -23.389509 1.065014 -44.122040 19.710255 18.110121 -47.575565 -8.229208 3.349183 1.497854 1.543303 9.721764 5.414717 -3.592426 4.995418 8.989019 -8.469386 -98.695847 131.027573 18.059544 5.395764 -9.518489 -4.640206 -31.864096 13.307603 12.635049 7.338642 22.993364 -3.780916 17.835854 -22.427584 0.489698 -2.483706 1.775978 -12.156517 -17.051327 33.146797 6.439493 -7.513591 -8.444403 -0.953817 12.852787 
-14.992531 50.503876 22.760967 -5.221632 -10.912656 -29.957384 0.000000 0.000000 0.000000 4.473411 -1.051475 -0.873438 4.016399 7.703031 -16.991854 6.648799 -6.178071 -8.949883 -13.674106 -23.012650 0.854463 -44.643559 20.112093 18.029089 -47.688164 -8.184978 3.342747 0.661789 1.502319 9.195682 4.666373 -2.850841 4.662048 8.561543 -8.484874 -99.659821 131.603729 18.155815 5.406362 -9.629831 -4.579377 -31.468256 12.282884 13.689851 8.189618 23.368162 -3.875730 16.180372 -22.569002 0.582329 -2.765273 -0.294244 -11.900845 -16.396690 34.112415 6.331544 -7.960014 -10.974097 -1.116403 11.509855 
-15.441033 50.421707 22.932869 -6.239354 -10.582908 -30.072033 0.000000 0.000000 0.000000 4.962058 -1.216130 -0.906543 4.733611 7.090246 -16.937145 6.147068 -6.341870 -8.908765 -13.191356 -23.784000 1.553813 -44.324398 20.149826 18.778828 -47.559296 -8.495617 3.365391 0.773955 1.421037 10.048851 5.126053 -3.207483 5.524846 8.398598 -8.791094 -101.219925 132.635269 18.294134 5.434939 -10.252467 -5.004390 -31.669811 13.768239 12.929182 7.535085 22.936575 -4.035633 17.021664 -22.801104 0.578766 -2.859106 1.618219 -11.937105 -15.791020 29.190750 5.433296 -8.406119 -19.019726 -1.747144 10.275914 
-15.962099 50.246147 23.063368 -6.428813 -9.627727 -29.438488 0.000000 0.000000 0.000000 4.826164 -1.625080 -1.172568 4.525106 6.530467 -17.333149 6.579283 -6.373006 -8.925913 -14.051057 -24.629671 1.005053 -43.568176 20.966877 19.105246 -47.253719 -8.639248 3.368116 -0.190506 1.735031 11.150548 4.430881 -3.920000 5.229873 8.142306 -8.458932 -102.458786 133.881866 18.235689 5.445534 -11.114017 -5.485743 -32.887810 13.337117 12.937737 7.476798 23.615093 -4.013952 15.227663 -23.405252 0.625807 -2.945537 4.549747 -11.258445 -15.671773 18.840214 4.807907 -11.732753 -18.662275 -1.697632 10.174469 
-16.433872 50.189022 23.114336 -5.475494 -8.846812 -28.355648 0.000000 0.000000 0.000000 4.219863 -1.314787 -1.337434 4.276882 6.602437 -17.986092 6.521487 -6.079998 -9.535449 -15.104764 -24.449390 -0.022044 -43.741539 21.666056 18.698656 -46.829525 -8.549667 3.354207 -1.221614 2.202607 10.791462 3.260531 -4.033271 4.172811 8.723435 -8.718111 -104.221703 134.900955 18.500912 5.477980 -10.446051 -4.743793 -33.063408 11.431343 13.805106 7.944603 24.871828 -3.642028 13.433545 -23.922636 0.539030 -2.481383 2.177087 -11.424602 -15.017114 22.256889 5.109922 -12.189820 -18.221479 -1.495710 9.259186 
